<svg id="Layer_1" data-name="Layer 1" xmlns="http://www.w3.org/2000/svg" viewBox="0 0 57.03 35.41"><defs><style>.cls-1{stroke:#000;stroke-miterlimit:10;}</style></defs><path d="M492.79,321.35c1.17,0,2.19-.06,3.19,0,.36,0,.37,1.32,0,1.35-1,.09-2.1,0-3.15,0s-1.37-.39-1.46-1.31a19.15,19.15,0,0,1,1.34-9.5c.71-1.66,1.58-3.26,2.39-4.91,0,0-.05-.09-.09-.09-4.2-.26-6.49-3.52-5.77-8.18a11.61,11.61,0,0,1,5.27-8.27c.09,0,.18-.16.27-.16.43,0,1,1,.72,1.14a10.56,10.56,0,0,0-4.5,5.78,8.27,8.27,0,0,0-.27,5,4.3,4.3,0,0,0,3.83,3.26A4.23,4.23,0,0,0,499,303c-2.5-2.35-2.38-5.24-1.53-8.26a1.19,1.19,0,0,1,.18-.49c.26-.23,1.3.1,1.26.42-.14,1.25-.5,2.47-.58,3.72a3.88,3.88,0,0,0,1.53,3.36,4.94,4.94,0,0,1,3.9-.61,1,1,0,0,0,.61-.05c2.32-1.13,4.21-2.67,4.84-5.34.28-1.21,0-1.66-1.18-1.83a24,24,0,0,0-3.88-.21,2.16,2.16,0,0,1-1.95-.91c-2.06-2.58-4.64-4.29-8.09-3.71a14,14,0,0,0-4.47,1.69,23.39,23.39,0,0,0-7.27,7.08,1.88,1.88,0,0,1-1.73.89c-4.12,0-7.06,2.13-9.6,5.54a9.87,9.87,0,0,1,6.81-.49c4.3,1.3,7.06,5.17,6.57,9.23a8.25,8.25,0,0,1-6.62,7l-1.16.22v1.25h7.49a6.8,6.8,0,0,1,1.57.11c.27.07.17,1.31-.09,1.31-3.19.05-6.39.05-9.58,0-.27,0-.57-.46-.79-.75-.09-.11,0-.34,0-.52,0-.8-.22-1.81.18-2.35s1.41-.42,2.16-.6a6.77,6.77,0,0,0,5.3-4.88A6.29,6.29,0,0,0,481,307.3a8.15,8.15,0,0,0-9.5-1.63,5.61,5.61,0,0,0-2.95,3.24,27.24,27.24,0,0,0-1.92,11.84c.07.77-.3,1.06-.94,1.28a5.5,5.5,0,0,1-7.23-5.54c0-.55,0-1.26.83-1.2s.6.71.58,1.24a4.07,4.07,0,0,0,4.28,4.4c.81,0,1.06-.28,1-1.12a27.9,27.9,0,0,1,4.15-15.44c2.08-3.37,4.86-5.89,8.87-6.76,0,0,.07,0,.1,0,2.2.22,3.42-1.1,4.64-2.7a21.15,21.15,0,0,1,6.67-5.73c5-2.7,9.5-1.92,13.24,2.34a2.22,2.22,0,0,0,1.88.81,19.49,19.49,0,0,1,4,.4c1.69.38,2.19,1.35,1.87,3.06-.66,3.47-3.05,5.41-6.05,6.76a3.17,3.17,0,0,1-1.54-.1,2.43,2.43,0,0,0-2.84,1.39,15.86,15.86,0,0,1-1.95,2.16,16.52,16.52,0,0,0-1.66,1.69,20.55,20.55,0,0,0-3.92,11.91C492.65,320.13,492.73,320.69,492.79,321.35Z" transform="translate(-453.66 -287.59)"/><path class="cls-1" d="M459.29,315.93l-.1-.13c-1.39-1.4-2.79-2.8-4.17-4.21a2.87,2.87,0,1,1,4.19-3.92l.09.1.09-.09a2.87,2.87,0,1,1,4.22,3.89l-4.21,4.25Zm0-.61,0,0c1.34-1.36,2.69-2.71,4-4.08a2.33,2.33,0,0,0,.63-2,2.45,2.45,0,0,0-4.64-.71l-.06.1a.81.81,0,0,0-.06-.13,2.44,2.44,0,0,0-2.72-1.31,2.46,2.46,0,0,0-1.21,4.15c1.29,1.33,2.6,2.63,3.9,3.95Z" transform="translate(-453.66 -287.59)"/></svg>