<svg id="New_Layer" data-name="New Layer" xmlns="http://www.w3.org/2000/svg" viewBox="0 0 738.72 457.92"><defs><style>.cls-1{fill:#fff;fill-rule:evenodd;}</style></defs><path class="cls-1" d="M812,144.18A163.82,163.82,0,0,0,756,161c-34.2,16.8-64.7,42-90.8,74.7-23.9,30.2-33.1,36.3-56.2,37.8-10.2.6-13.8,1.3-24.1,4.8a172.93,172.93,0,0,0-41.4,20.3c-11.5,7.6-34.4,30.1-44.3,43.4-24.2,32.8-45.4,79.1-56,122.5-7,28.6-9.5,47.9-10.4,81.4-.6,22.8-.7,24-2.9,26.5-2,2.3-3.1,2.6-10.1,2.9-16.6.8-28.4-3.7-39.9-15.2-11.3-11.3-15.8-22.4-15.7-38.4l.1-9.4,28.4-28.6c24.5-24.6,28.9-29.6,31.6-35.2,6.2-12.7,6.4-26.9.6-38.9-3.9-7.8-12.7-16.4-21.1-20.4-6.4-3-7.5-3.2-17.8-3.2-12,0-15.9,1.1-24.7,6.7l-4.7,3-3.4-2.6c-11.7-8.9-31.1-10.6-44.4-3.9-21.9,11.1-30.7,36-20.4,57.8,2.5,5.5,6.8,10.3,30.1,34.2l27.1,27.8.4,12.5c.8,30,14.5,52.2,40,64.5,12.1,5.8,17.7,7,32,6.9,14.6,0,24.4-2.6,29.8-7.7l3.4-3.2.6-32.5c.6-34.8,1.4-43.2,6.7-69.2,5.6-27.4,17-61.1,25.4-75.2,6.1-10.2,17.7-20.6,29-26.1,20.2-9.8,38.4-13.4,57.6-11.6,15.2,1.4,25.3,4.1,37.5,10.1,15.8,7.6,32.6,21.5,42.1,34.7,21,29.3,20.8,67.8-.7,98.9-8.2,11.8-18.9,20.9-32.5,27.8-9.4,4.6-18.3,7.2-31.6,9.2-13,1.9-17,3.3-19.3,6.7-3,4.6-3.5,8.9-2.9,23.5l.7,14.3,4.1,4.5,4.1,4.5,63-.1c51.4,0,63.2-.2,64.3-1.3,2-2,2.7-11.8,1-14-2.2-2.9-16-3.6-70-3.7h-48.8v-15.6l12.8-2.6c24.3-4.8,40.5-13.2,56.7-29.3,14.1-13.9,21.6-26,27.4-44,7.9-24.6,5.9-50.9-5.9-75-13.8-28.4-39.4-50.3-71.2-61-29-9.7-59.5-8.3-90.2,4.1-3.7,1.4,7.4-11.7,22.3-26.7,29.5-29.4,55-41.4,94-43.8,19.8-1.3,22.1-2.6,32.7-17.8,27.7-40,66.6-74.9,102.7-92.4,21.7-10.4,45.3-16.9,61.6-16.9a100.06,100.06,0,0,1,51.7,15.1c8.4,5.2,24.9,20.4,38.9,35.9,7.8,8.6,9.8,9.3,32,10.2,37.2,1.4,51,3.5,55.4,8.2,4.6,4.9,3.6,16.9-2.9,32.6-8.6,20.9-27.9,39.8-53.8,52.7l-7.4,3.7-6.9-1.2c-15.7-2.7-28.8-1.1-42.3,5.1l-6.9,3.1-5.4-5.8c-12.7-13.7-16-29.3-11.4-55.1,1.1-6.1,2.7-15,3.5-19.9s1.6-9.7,1.6-10.7c0-4-12.8-8.6-15.7-5.6-1.7,1.7-4.7,12.3-7.5,26.2-2.5,12.8-2.9,33.4-.9,43a82.74,82.74,0,0,0,20,38.7l5.2,5.7-1.7,3.3c-6.5,12.7-20.5,23.4-35.4,27.3-4.8,1.3-9,1.6-16,1.2-36-1.9-57.1-27.4-57.1-69.1,0-23.9,8.5-49.9,23.8-73,7.5-11.2,22.1-26.5,32.2-33.6,11.1-7.9,10.6-7.2,9.2-11.1s-6.8-9.9-8.9-9.9c-3.1,0-17.6,11.2-29.5,22.9-23.6,22.9-37.6,51-42.9,86.1-5,33.6,1.8,63,19,81.1,13.3,14.2,28.7,21.7,50.2,24.4a46.52,46.52,0,0,1,6.2,1.1c.4.3-6.5,14.9-15.2,32.7-12.6,25.5-17.1,35.7-21.4,48.7-9.9,29.9-13.2,53-12.3,85.5.6,23.2,1.7,29.3,5.8,33.4,3.7,3.8,5.9,4.1,32.5,4.4,24.4.2,24.7.1,25.8-5.8.8-4.3-.9-11.1-3-11.9-.9-.3-10.5-.6-21.5-.6-23,0-20.2,1.8-21.7-14-1.8-19,1.6-49.8,8.2-74.6a285.17,285.17,0,0,1,33.9-75.8c7.2-10.9,11.2-15.6,28.3-32.9,10.9-11.1,21.7-22.8,23.9-26,8.5-12.2,11.2-15.2,16.5-18.1,6.3-3.5,16.8-4.6,24.8-2.7a54.84,54.84,0,0,0,11.3,1.3c5.8.1,7.4-.4,16.4-5,20.3-10.2,39.3-25.2,50.1-39.5,15.3-20.4,23.9-52.8,17.7-66.7-2.6-5.9-8.7-11.2-15.7-13.9-8.8-3.3-28.1-6.1-49.5-7.2-15.3-.8-20.4-1.4-23.7-2.9-2.8-1.2-8.9-6.5-17.1-14.7-17.4-17.5-30.3-26.8-47.1-34.2C850.55,146.08,828,142.18,812,144.18Zm-474.4,262c6.6,3.4,10.9,8.9,13.9,17.7,1.2,3.7,2.5,6.6,2.8,6.6s2.9-3.8,5.6-8.5c8.2-14.3,13.4-18,25.6-18,6.4,0,8.2.4,12.2,2.8,10.9,6.4,15.8,20.5,10.8,31.5-1.3,2.8-10.4,13-27.1,30.3l-25.3,26-24.8-24.8c-27.9-27.8-29.8-30.5-29.8-41,0-7.4,1.5-11.5,6.1-16.8A25,25,0,0,1,337.55,406.18Z" transform="translate(-284.06 -143.66)"/></svg>